<svg xmlns="http://www.w3.org/2000/svg" width="256" height="256" viewBox="0 0 100 100">
  <path
    d="M38.24 68.40L38.24 68.40Q38.24 65.47 36.04 63.85Q33.83 62.23 28.34 61.05Q22.85 59.88 19.63 58.24Q16.41 56.60 14.86 54.34Q13.32 52.07 13.32 48.95L13.32 48.95Q13.32 43.75 17.71 40.16Q22.11 36.56 28.95 36.56L28.95 36.56Q36.13 36.56 40.61 40.27Q45.08 43.98 45.08 49.77L45.08 49.77L37.81 49.77Q37.81 46.80 35.29 44.65Q32.77 42.50 28.95 42.50L28.95 42.50Q25 42.50 22.77 44.22Q20.55 45.94 20.55 48.71L20.55 48.71Q20.55 51.33 22.62 52.66Q24.69 53.98 30.10 55.20Q35.51 56.41 38.87 58.09Q42.23 59.77 43.85 62.13Q45.47 64.49 45.47 67.89L45.47 67.89Q45.47 73.55 40.94 76.97Q36.41 80.39 29.18 80.39L29.18 80.39Q24.10 80.39 20.20 78.59Q16.29 76.80 14.08 73.57Q11.88 70.35 11.88 66.60L11.88 66.60L19.10 66.60Q19.30 70.23 22.01 72.36Q24.73 74.49 29.18 74.49L29.18 74.49Q33.28 74.49 35.76 72.83Q38.24 71.17 38.24 68.40ZM62.11 19.61L62.11 42.46Q66.91 36.56 74.61 36.56L74.61 36.56Q88.01 36.56 88.13 51.68L88.13 51.68L88.13 79.61L80.90 79.61L80.90 51.64Q80.86 47.07 78.81 44.88Q76.76 42.70 72.42 42.70L72.42 42.70Q68.91 42.70 66.25 44.57Q63.59 46.45 62.11 49.49L62.11 49.49L62.11 79.61L54.88 79.61L54.88 19.61L62.11 19.61Z"
    fill="%23cb9eff"></path>
</svg>
